# xmcd
#
# Track frame offsets:
#        150
#        21278
#        45688
#        67615
#
# Disc length: 1223 seconds
#
# Revision: 0
# Processed by: cddbd v1.5.1PL2 Copyright (c) Steve Scherf et al.
# Submitted via: ExactAudioCopy v0.95b3
#
DISCID=2804c504
DTITLE=MAXIMIZOR - CAN'T UNDO THIS!!
DYEAR=1993
DGENRE=Rave
TTITLE0=CAN'T UNDO THIS (M-SIZE)
TTITLE1=CAN'T UNDO THIS (L-SIZE)
TTITLE2=CAN'T UNDO THIS (REMIX VERSION)
TTITLE3=CAN'T UNDO THIS (CLUB VERSION)
EXTD=
EXTT0=
EXTT1=
EXTT2=
EXTT3=
PLAYORDER=
